<svg xmlns="http://www.w3.org/2000/svg" xmlns:xlink="http://www.w3.org/1999/xlink" width="1080" zoomAndPan="magnify" viewBox="0 0 810 809.999993" height="1080" preserveAspectRatio="xMidYMid meet" version="1.2"><defs/><g id="5e0114ce2a"><g style="fill:#000000;fill-opacity:1;"><g transform="translate(188.355462, 454.500232)"><path style="stroke:none" d="M 36.90625 -57.828125 L 44.53125 -57.828125 C 51.644531 -57.828125 56.96875 -59.234375 60.5 -62.046875 C 64.039062 -64.859375 65.8125 -68.953125 65.8125 -74.328125 C 65.8125 -79.765625 64.328125 -83.773438 61.359375 -86.359375 C 58.398438 -88.953125 53.757812 -90.25 47.4375 -90.25 L 36.90625 -90.25 Z M 89.203125 -75.15625 C 89.203125 -63.40625 85.523438 -54.414062 78.171875 -48.1875 C 70.828125 -41.957031 60.382812 -38.84375 46.84375 -38.84375 L 36.90625 -38.84375 L 36.90625 0 L 13.75 0 L 13.75 -109.21875 L 48.640625 -109.21875 C 61.878906 -109.21875 71.945312 -106.363281 78.84375 -100.65625 C 85.75 -94.957031 89.203125 -86.457031 89.203125 -75.15625 Z M 89.203125 -75.15625 "/></g></g><g style="fill:#000000;fill-opacity:1;"><g transform="translate(284.421341, 454.500232)"><path style="stroke:none" d="M 102.046875 0 L 75.609375 0 L 50.203125 -41.3125 L 24.796875 0 L 0 0 L 36.234375 -56.328125 L 2.3125 -109.21875 L 27.859375 -109.21875 L 51.40625 -69.921875 L 74.484375 -109.21875 L 99.4375 -109.21875 L 65.140625 -55.0625 Z M 102.046875 0 "/></g></g><g style="fill:#000000;fill-opacity:1;"><g transform="translate(386.463324, 454.500232)"><path style="stroke:none" d="M 55.203125 -61.328125 L 98.53125 -61.328125 L 98.53125 -4.703125 C 91.507812 -2.410156 84.898438 -0.804688 78.703125 0.109375 C 72.503906 1.035156 66.164062 1.5 59.6875 1.5 C 43.207031 1.5 30.617188 -3.34375 21.921875 -13.03125 C 13.234375 -22.71875 8.890625 -36.628906 8.890625 -54.765625 C 8.890625 -72.390625 13.929688 -86.132812 24.015625 -96 C 34.097656 -105.863281 48.082031 -110.796875 65.96875 -110.796875 C 77.175781 -110.796875 87.984375 -108.550781 98.390625 -104.0625 L 90.6875 -85.546875 C 82.71875 -89.523438 74.425781 -91.515625 65.8125 -91.515625 C 55.800781 -91.515625 47.78125 -88.148438 41.75 -81.421875 C 35.726562 -74.703125 32.71875 -65.664062 32.71875 -54.3125 C 32.71875 -42.457031 35.144531 -33.40625 40 -27.15625 C 44.863281 -20.90625 51.925781 -17.78125 61.1875 -17.78125 C 66.019531 -17.78125 70.925781 -18.28125 75.90625 -19.28125 L 75.90625 -42.0625 L 55.203125 -42.0625 Z M 55.203125 -61.328125 "/></g></g><g style="fill:#000000;fill-opacity:1;"><g transform="translate(497.245354, 454.500232)"><path style="stroke:none" d="M 110.640625 0 L 81.203125 0 L 33.6875 -82.625 L 33.015625 -82.625 C 33.960938 -68.03125 34.4375 -57.625 34.4375 -51.40625 L 34.4375 0 L 13.75 0 L 13.75 -109.21875 L 42.953125 -109.21875 L 90.390625 -27.421875 L 90.921875 -27.421875 C 90.171875 -41.609375 89.796875 -51.644531 89.796875 -57.53125 L 89.796875 -109.21875 L 110.640625 -109.21875 Z M 110.640625 0 "/></g></g><g style="fill:#000000;fill-opacity:1;"><g transform="translate(256.359365, 571.500226)"><path style="stroke:none" d="M 32.71875 -12.6875 C 32.71875 -8.5625 31.234375 -5.3125 28.265625 -2.9375 C 25.296875 -0.5625 21.164062 0.625 15.875 0.625 C 11 0.625 6.6875 -0.289062 2.9375 -2.125 L 2.9375 -11.125 C 6.019531 -9.75 8.628906 -8.78125 10.765625 -8.21875 C 12.898438 -7.65625 14.851562 -7.375 16.625 -7.375 C 18.75 -7.375 20.378906 -7.78125 21.515625 -8.59375 C 22.648438 -9.40625 23.21875 -10.613281 23.21875 -12.21875 C 23.21875 -13.113281 22.96875 -13.910156 22.46875 -14.609375 C 21.96875 -15.304688 21.234375 -15.976562 20.265625 -16.625 C 19.296875 -17.269531 17.320312 -18.300781 14.34375 -19.71875 C 11.550781 -21.03125 9.457031 -22.289062 8.0625 -23.5 C 6.664062 -24.707031 5.550781 -26.113281 4.71875 -27.71875 C 3.882812 -29.320312 3.46875 -31.195312 3.46875 -33.34375 C 3.46875 -37.382812 4.835938 -40.5625 7.578125 -42.875 C 10.316406 -45.1875 14.101562 -46.34375 18.9375 -46.34375 C 21.3125 -46.34375 23.578125 -46.0625 25.734375 -45.5 C 27.890625 -44.9375 30.144531 -44.144531 32.5 -43.125 L 29.375 -35.59375 C 26.9375 -36.59375 24.921875 -37.289062 23.328125 -37.6875 C 21.734375 -38.082031 20.164062 -38.28125 18.625 -38.28125 C 16.789062 -38.28125 15.382812 -37.851562 14.40625 -37 C 13.425781 -36.144531 12.9375 -35.03125 12.9375 -33.65625 C 12.9375 -32.800781 13.132812 -32.054688 13.53125 -31.421875 C 13.925781 -30.785156 14.554688 -30.171875 15.421875 -29.578125 C 16.285156 -28.984375 18.332031 -27.914062 21.5625 -26.375 C 25.832031 -24.332031 28.757812 -22.285156 30.34375 -20.234375 C 31.925781 -18.179688 32.71875 -15.664062 32.71875 -12.6875 Z M 32.71875 -12.6875 "/></g></g><g style="fill:#000000;fill-opacity:1;"><g transform="translate(291.607211, 571.500226)"><path style="stroke:none" d="M 12.59375 -17.53125 C 12.59375 -14.070312 13.160156 -11.457031 14.296875 -9.6875 C 15.429688 -7.914062 17.28125 -7.03125 19.84375 -7.03125 C 22.382812 -7.03125 24.210938 -7.910156 25.328125 -9.671875 C 26.441406 -11.429688 27 -14.050781 27 -17.53125 C 27 -20.988281 26.4375 -23.582031 25.3125 -25.3125 C 24.1875 -27.039062 22.34375 -27.90625 19.78125 -27.90625 C 17.238281 -27.90625 15.40625 -27.046875 14.28125 -25.328125 C 13.15625 -23.609375 12.59375 -21.007812 12.59375 -17.53125 Z M 36.75 -17.53125 C 36.75 -11.84375 35.25 -7.394531 32.25 -4.1875 C 29.25 -0.976562 25.070312 0.625 19.71875 0.625 C 16.363281 0.625 13.40625 -0.109375 10.84375 -1.578125 C 8.28125 -3.046875 6.3125 -5.15625 4.9375 -7.90625 C 3.5625 -10.65625 2.875 -13.863281 2.875 -17.53125 C 2.875 -23.238281 4.363281 -27.675781 7.34375 -30.84375 C 10.320312 -34.007812 14.507812 -35.59375 19.90625 -35.59375 C 23.257812 -35.59375 26.21875 -34.863281 28.78125 -33.40625 C 31.34375 -31.945312 33.3125 -29.851562 34.6875 -27.125 C 36.0625 -24.394531 36.75 -21.195312 36.75 -17.53125 Z M 36.75 -17.53125 "/></g></g><g style="fill:#000000;fill-opacity:1;"><g transform="translate(331.229791, 571.500226)"><path style="stroke:none" d="M 14.53125 0 L 5 0 L 5 -48.625 L 14.53125 -48.625 Z M 14.53125 0 "/></g></g><g style="fill:#000000;fill-opacity:1;"><g transform="translate(350.759854, 571.500226)"><path style="stroke:none" d="M 29.75 0 L 28.46875 -4.46875 L 27.96875 -4.46875 C 26.945312 -2.84375 25.5 -1.585938 23.625 -0.703125 C 21.75 0.179688 19.613281 0.625 17.21875 0.625 C 13.113281 0.625 10.019531 -0.472656 7.9375 -2.671875 C 5.851562 -4.867188 4.8125 -8.03125 4.8125 -12.15625 L 4.8125 -34.9375 L 14.34375 -34.9375 L 14.34375 -14.53125 C 14.34375 -12.007812 14.789062 -10.117188 15.6875 -8.859375 C 16.582031 -7.597656 18.007812 -6.96875 19.96875 -6.96875 C 22.632812 -6.96875 24.5625 -7.859375 25.75 -9.640625 C 26.9375 -11.421875 27.53125 -14.375 27.53125 -18.5 L 27.53125 -34.9375 L 37.0625 -34.9375 L 37.0625 0 Z M 29.75 0 "/></g></g><g style="fill:#000000;fill-opacity:1;"><g transform="translate(392.819784, 571.500226)"><path style="stroke:none" d="M 19.71875 -6.96875 C 21.382812 -6.96875 23.382812 -7.332031 25.71875 -8.0625 L 25.71875 -0.96875 C 23.34375 0.09375 20.425781 0.625 16.96875 0.625 C 13.15625 0.625 10.378906 -0.335938 8.640625 -2.265625 C 6.898438 -4.191406 6.03125 -7.082031 6.03125 -10.9375 L 6.03125 -27.78125 L 1.46875 -27.78125 L 1.46875 -31.8125 L 6.71875 -35 L 9.46875 -42.375 L 15.5625 -42.375 L 15.5625 -34.9375 L 25.34375 -34.9375 L 25.34375 -27.78125 L 15.5625 -27.78125 L 15.5625 -10.9375 C 15.5625 -9.582031 15.941406 -8.582031 16.703125 -7.9375 C 17.460938 -7.289062 18.46875 -6.96875 19.71875 -6.96875 Z M 19.71875 -6.96875 "/></g></g><g style="fill:#000000;fill-opacity:1;"><g transform="translate(420.599343, 571.500226)"><path style="stroke:none" d="M 4.59375 -43.96875 C 4.59375 -47.070312 6.320312 -48.625 9.78125 -48.625 C 13.238281 -48.625 14.96875 -47.070312 14.96875 -43.96875 C 14.96875 -42.488281 14.535156 -41.335938 13.671875 -40.515625 C 12.804688 -39.691406 11.507812 -39.28125 9.78125 -39.28125 C 6.320312 -39.28125 4.59375 -40.84375 4.59375 -43.96875 Z M 14.53125 0 L 5 0 L 5 -34.9375 L 14.53125 -34.9375 Z M 14.53125 0 "/></g></g><g style="fill:#000000;fill-opacity:1;"><g transform="translate(440.129405, 571.500226)"><path style="stroke:none" d="M 12.59375 -17.53125 C 12.59375 -14.070312 13.160156 -11.457031 14.296875 -9.6875 C 15.429688 -7.914062 17.28125 -7.03125 19.84375 -7.03125 C 22.382812 -7.03125 24.210938 -7.910156 25.328125 -9.671875 C 26.441406 -11.429688 27 -14.050781 27 -17.53125 C 27 -20.988281 26.4375 -23.582031 25.3125 -25.3125 C 24.1875 -27.039062 22.34375 -27.90625 19.78125 -27.90625 C 17.238281 -27.90625 15.40625 -27.046875 14.28125 -25.328125 C 13.15625 -23.609375 12.59375 -21.007812 12.59375 -17.53125 Z M 36.75 -17.53125 C 36.75 -11.84375 35.25 -7.394531 32.25 -4.1875 C 29.25 -0.976562 25.070312 0.625 19.71875 0.625 C 16.363281 0.625 13.40625 -0.109375 10.84375 -1.578125 C 8.28125 -3.046875 6.3125 -5.15625 4.9375 -7.90625 C 3.5625 -10.65625 2.875 -13.863281 2.875 -17.53125 C 2.875 -23.238281 4.363281 -27.675781 7.34375 -30.84375 C 10.320312 -34.007812 14.507812 -35.59375 19.90625 -35.59375 C 23.257812 -35.59375 26.21875 -34.863281 28.78125 -33.40625 C 31.34375 -31.945312 33.3125 -29.851562 34.6875 -27.125 C 36.0625 -24.394531 36.75 -21.195312 36.75 -17.53125 Z M 36.75 -17.53125 "/></g></g><g style="fill:#000000;fill-opacity:1;"><g transform="translate(479.751985, 571.500226)"><path style="stroke:none" d="M 37.25 0 L 27.71875 0 L 27.71875 -20.40625 C 27.71875 -22.925781 27.269531 -24.816406 26.375 -26.078125 C 25.476562 -27.335938 24.050781 -27.96875 22.09375 -27.96875 C 19.425781 -27.96875 17.5 -27.078125 16.3125 -25.296875 C 15.125 -23.515625 14.53125 -20.5625 14.53125 -16.4375 L 14.53125 0 L 5 0 L 5 -34.9375 L 12.28125 -34.9375 L 13.5625 -30.46875 L 14.09375 -30.46875 C 15.15625 -32.15625 16.617188 -33.429688 18.484375 -34.296875 C 20.347656 -35.160156 22.46875 -35.59375 24.84375 -35.59375 C 28.90625 -35.59375 31.988281 -34.492188 34.09375 -32.296875 C 36.195312 -30.097656 37.25 -26.925781 37.25 -22.78125 Z M 37.25 0 "/></g></g><g style="fill:#000000;fill-opacity:1;"><g transform="translate(521.811927, 571.500226)"><path style="stroke:none" d="M 29.375 -10.375 C 29.375 -6.789062 28.128906 -4.0625 25.640625 -2.1875 C 23.148438 -0.3125 19.425781 0.625 14.46875 0.625 C 11.925781 0.625 9.757812 0.453125 7.96875 0.109375 C 6.175781 -0.234375 4.5 -0.738281 2.9375 -1.40625 L 2.9375 -9.28125 C 4.707031 -8.445312 6.703125 -7.75 8.921875 -7.1875 C 11.140625 -6.625 13.09375 -6.34375 14.78125 -6.34375 C 18.238281 -6.34375 19.96875 -7.34375 19.96875 -9.34375 C 19.96875 -10.09375 19.738281 -10.703125 19.28125 -11.171875 C 18.820312 -11.640625 18.03125 -12.171875 16.90625 -12.765625 C 15.78125 -13.359375 14.28125 -14.050781 12.40625 -14.84375 C 9.71875 -15.96875 7.742188 -17.007812 6.484375 -17.96875 C 5.222656 -18.925781 4.304688 -20.023438 3.734375 -21.265625 C 3.160156 -22.503906 2.875 -24.03125 2.875 -25.84375 C 2.875 -28.945312 4.078125 -31.347656 6.484375 -33.046875 C 8.890625 -34.742188 12.300781 -35.59375 16.71875 -35.59375 C 20.925781 -35.59375 25.019531 -34.675781 29 -32.84375 L 26.125 -25.96875 C 24.375 -26.71875 22.738281 -27.332031 21.21875 -27.8125 C 19.695312 -28.289062 18.144531 -28.53125 16.5625 -28.53125 C 13.75 -28.53125 12.34375 -27.769531 12.34375 -26.25 C 12.34375 -25.394531 12.796875 -24.65625 13.703125 -24.03125 C 14.609375 -23.40625 16.59375 -22.476562 19.65625 -21.25 C 22.382812 -20.144531 24.382812 -19.113281 25.65625 -18.15625 C 26.925781 -17.195312 27.863281 -16.09375 28.46875 -14.84375 C 29.070312 -13.59375 29.375 -12.101562 29.375 -10.375 Z M 29.375 -10.375 "/></g></g><path style="fill:none;stroke-width:4;stroke-linecap:butt;stroke-linejoin:miter;stroke:#000000;stroke-opacity:1;stroke-miterlimit:4;" d="M 0.00000897789 2.000223 L 84.098976 2.000223 " transform="matrix(0.749164,0,0,0.749164,188.355462,551.23588)"/><path style="fill:none;stroke-width:4;stroke-linecap:butt;stroke-linejoin:miter;stroke:#000000;stroke-opacity:1;stroke-miterlimit:4;" d="M -0.000735352 2.000223 L 84.098232 2.000223 " transform="matrix(0.749164,0,0,0.749164,558.570863,551.23588)"/></g></svg>